<svg width="42" height="23" viewBox="0 0 42 23" fill="none" xmlns="http://www.w3.org/2000/svg">
<path d="M0.676523 11.44C0.676523 9.36 1.12652 7.51 2.02652 5.89C2.92652 4.25 4.17652 2.98 5.77652 2.08C7.39652 1.16 9.22652 0.699999 11.2665 0.699999C13.7665 0.699999 15.9065 1.36 17.6865 2.68C19.4665 4 20.6565 5.8 21.2565 8.08H15.6165C15.1965 7.2 14.5965 6.53 13.8165 6.07C13.0565 5.61 12.1865 5.38 11.2065 5.38C9.62652 5.38 8.34652 5.93 7.36652 7.03C6.38652 8.13 5.89652 9.6 5.89652 11.44C5.89652 13.28 6.38652 14.75 7.36652 15.85C8.34652 16.95 9.62652 17.5 11.2065 17.5C12.1865 17.5 13.0565 17.27 13.8165 16.81C14.5965 16.35 15.1965 15.68 15.6165 14.8H21.2565C20.6565 17.08 19.4665 18.88 17.6865 20.2C15.9065 21.5 13.7665 22.15 11.2665 22.15C9.22652 22.15 7.39652 21.7 5.77652 20.8C4.17652 19.88 2.92652 18.61 2.02652 16.99C1.12652 15.37 0.676523 13.52 0.676523 11.44ZM37.1481 11.2C38.3681 11.46 39.3481 12.07 40.0881 13.03C40.8281 13.97 41.1981 15.05 41.1981 16.27C41.1981 18.03 40.5781 19.43 39.3381 20.47C38.1181 21.49 36.4081 22 34.2081 22H24.3981V0.939999H33.8781C36.0181 0.939999 37.6881 1.43 38.8881 2.41C40.1081 3.39 40.7181 4.72 40.7181 6.4C40.7181 7.64 40.3881 8.67 39.7281 9.49C39.0881 10.31 38.2281 10.88 37.1481 11.2ZM29.5281 9.46H32.8881C33.7281 9.46 34.3681 9.28 34.8081 8.92C35.2681 8.54 35.4981 7.99 35.4981 7.27C35.4981 6.55 35.2681 6 34.8081 5.62C34.3681 5.24 33.7281 5.05 32.8881 5.05H29.5281V9.46ZM33.3081 17.86C34.1681 17.86 34.8281 17.67 35.2881 17.29C35.7681 16.89 36.0081 16.32 36.0081 15.58C36.0081 14.84 35.7581 14.26 35.2581 13.84C34.7781 13.42 34.1081 13.21 33.2481 13.21H29.5281V17.86H33.3081Z" fill="#2853CE"/>
</svg>
